<?xml version="1.0" standalone="no"?><!DOCTYPE svg PUBLIC "-//W3C//DTD SVG 1.1//EN" "http://www.w3.org/Graphics/SVG/1.1/DTD/svg11.dtd"><svg t="1613289377719" class="icon" viewBox="0 0 1024 1024" version="1.1" xmlns="http://www.w3.org/2000/svg" p-id="2162" xmlns:xlink="http://www.w3.org/1999/xlink" width="200" height="200"><defs><style type="text/css"></style></defs><path d="M101.7 611.9l312.4 312.4c22.6 22.6 52.6 35 84.5 35s61.9-12.4 84.5-35l344.8-344.8c22.6-22.6 35-52.6 35-84.5V240c0-96.7-78.4-175-175-175H529.1c-31.9 0-61.9 12.4-84.5 35L101.7 442.9c-46.6 46.6-46.6 122.4 0 169zM147 488.1l342.9-342.9c10.5-10.5 24.4-16.3 39.3-16.3H788c61.3 0 111 49.7 111 111V495c0 14.8-5.8 28.8-16.3 39.3L537.9 879c-21.6 21.6-56.9 21.6-78.5 0L147 566.6c-21.7-21.6-21.7-56.8 0-78.5z" p-id="2163"></path><path d="M563 357.2c0 63.4 51.6 115 115 115s115-51.6 115-115-51.6-115-115-115-115 51.6-115 115z m64 0c0-28.1 22.9-51 51-51s51 22.9 51 51-22.9 51-51 51-51-22.9-51-51z" p-id="2164"></path></svg>