<?xml version="1.0" standalone="no"?><!DOCTYPE svg PUBLIC "-//W3C//DTD SVG 1.1//EN" "http://www.w3.org/Graphics/SVG/1.1/DTD/svg11.dtd"><svg t="1613289469966" class="icon" viewBox="0 0 1024 1024" version="1.1" xmlns="http://www.w3.org/2000/svg" p-id="3108" xmlns:xlink="http://www.w3.org/1999/xlink" width="200" height="200"><defs><style type="text/css"></style></defs><path d="M448.3 746.3H342V219.2c0-29.3 23.8-53.1 53.1-53.1s53.1 23.8 53.1 53.1v527.1zM284.7 746.3H178.4V411.6c0-29.3 23.8-53.1 53.1-53.1s53.1 23.8 53.1 53.1v334.7zM612 746.3H505.7V329.7c0-29.3 23.8-53.1 53.1-53.1s53.1 23.8 53.1 53.1v416.6zM775.6 746.3H669.3V478.5c0-29.3 23.8-53.1 53.1-53.1s53.1 23.8 53.1 53.1v267.8z" p-id="3109"></path></svg>